<?xml version="1.0" encoding="utf-8"?>
<!-- Uploaded to: SVG Repo, www.svgrepo.com, Generator: SVG Repo Mixer Tools -->
<svg width="800px" height="800px" viewBox="0 0 1024 1024" class="icon"  version="1.1" xmlns="http://www.w3.org/2000/svg"><path d="M993.763 493.538v35c0 13.331-6.04 26.664-18.135 37.137-140.149 121.422-280.35 242.795-420.49 364.219-11.813 10.237-25.813 15.501-42.454 15.501v-35c16.644 0 30.641-5.264 42.454-15.501C695.28 773.47 835.474 652.092 975.628 530.677c12.095-10.475 18.135-23.803 18.135-37.139z" fill="#6DC3B1" /><path d="M30.239 528.367v-3.5-1.75-3.5-3.5-1.75-3.5-3.5-1.75-3.5-3.5-1.75-3.5c0 14.707 6.701 29.313 19.037 40.019 138.449 120.064 277.049 239.996 415.562 360.02 13.002 11.26 28.74 16.466 47.853 16.994v35c-19.108-0.528-34.851-5.734-47.853-16.994C326.325 808.382 187.725 688.45 49.276 568.386c-12.337-10.705-19.037-25.312-19.037-40.019z" fill="#6DC3B1" /><path d="M510.786 76.601c16.263 0 32.546 5.362 44.946 16.097 139.949 121.188 279.9 242.376 419.818 363.586 24.241 20.995 24.295 53.413 0.079 74.396C835.48 652.101 695.28 773.478 555.141 894.898c-11.814 10.238-25.813 15.502-42.451 15.502-19.109-0.528-34.853-5.734-47.854-16.994C326.324 773.382 187.724 653.45 49.275 533.386c-19.581-16.987-24.96-43.81-11.895-65.251 3.919-6.438 8.669-11.829 14.465-16.849C189.954 331.734 328.024 212.152 466.107 92.567c12.296-10.64 28.478-15.966 44.679-15.966z" fill="#7DC9BD" /><path d="M626.529 404.708v16.8c0-10.046-0.126-20.086-0.771-30.107-1.833-28.476-16.591-51.767-41.971-69.721-20.742-14.683-44.468-22.142-70.409-22.144-3.887 0-7.82 0.168-11.804 0.502-36.619 3.091-65.348 18.376-85.729 45.001-12.369 16.167-17.875 34.184-18.509 53.478-0.229 6.721-5.733 11.24-12.48 11.24-1.32 0-2.692-0.171-4.081-0.539-5.454-1.43-8.931-5.542-8.859-10.893v-16.8c-0.071 5.35 3.407 9.462 8.859 10.893 1.388 0.367 2.759 0.539 4.081 0.539 6.749 0 12.253-4.519 12.48-11.24 0.634-19.292 6.139-37.311 18.509-53.478 20.381-26.625 49.109-41.911 85.729-45.001 3.983-0.336 7.917-0.502 11.804-0.502 25.941 0.001 49.667 7.46 70.409 22.144 25.382 17.957 40.139 41.245 41.971 69.722 0.645 10.019 0.771 20.059 0.771 30.106z" fill="#63A699" /><path d="M626.529 404.708v16.8c0-10.046-0.126-20.086-0.771-30.107-1.833-28.476-16.591-51.767-41.971-69.721-20.742-14.683-44.468-22.142-70.409-22.144-3.887 0-7.82 0.168-11.804 0.502-2.632 0.223-5.225 0.506-7.775 0.855v-16.8c2.551-0.349 5.143-0.632 7.775-0.854 3.983-0.336 7.917-0.502 11.804-0.502 25.941 0.001 49.667 7.46 70.409 22.144 25.382 17.957 40.139 41.245 41.971 69.722 0.645 10.018 0.771 20.058 0.771 30.105M493.799 284.092v16.8c-9.729 1.327-18.863 3.567-27.393 6.7v-16.8c8.528-3.132 17.661-5.373 27.393-6.7M466.404 290.792v16.8c-7.737 2.844-14.976 6.422-21.709 10.726v-16.8c6.735-4.303 13.972-7.88 21.709-10.726M444.695 301.518v16.8c-9.315 5.952-17.663 13.287-25.025 21.972v-16.8c7.362-8.685 15.71-16.021 25.025-21.972M419.668 323.489v16.8a119.419 119.419 0 0 0-3.824 4.749c-11.725 15.323-17.281 32.309-18.368 50.468v-16.8c1.085-18.159 6.644-35.146 18.368-50.468a123.697 123.697 0 0 1 3.824-4.749" fill="#63A699" /><path d="M397.479 378.707v16.8c-0.061 0.998-0.108 2.002-0.142 3.007a6.847 6.847 0 0 1-0.017 0.349v-16.8c0.007-0.116 0.012-0.231 0.017-0.349 0.033-1.005 0.08-2.008 0.142-3.007M397.32 382.063v16.8c-0.16 2.586-1.107 4.834-2.607 6.603v-16.8c1.5-1.77 2.447-4.018 2.607-6.603" fill="#63A699" /><path d="M394.713 388.666v16.8a11.405 11.405 0 0 1-2.586 2.25v-16.799a11.458 11.458 0 0 0 2.586-2.251M392.126 390.918v16.799c-0.75 0.481-1.563 0.883-2.424 1.197v-16.8a12.564 12.564 0 0 0 2.424-1.196M389.702 392.115v16.8c-0.903 0.333-1.859 0.572-2.857 0.707v-16.8a13.666 13.666 0 0 0 2.857-0.707" fill="#63A699" /><path d="M386.845 392.822v16.8c-0.647 0.089-1.313 0.134-1.989 0.134-1.319 0-2.691-0.172-4.08-0.539-5.454-1.43-8.931-5.542-8.859-10.893v-16.8c-0.071 5.351 3.407 9.462 8.859 10.893a15.96 15.96 0 0 0 4.08 0.539c0.678 0 1.341-0.046 1.989-0.134" fill="#63A699" /><path d="M657.734 456.109v16.8H366.169v-16.8h291.565z" fill="#63A699" /><path d="M657.734 456.109v16.8H366.169v-16.8h291.565" fill="#63A699" /><path d="M560.032 547.158v16.8c0.015-22.13-21.234-40.868-47.078-41.354a46.276 46.276 0 0 0-1.051-0.011v-16.8c0.349 0 0.699 0.003 1.051 0.01 25.844 0.487 47.092 19.225 47.078 41.355z" fill="#63A699" /><path d="M560.032 547.158v16.8c0.015-22.13-21.234-40.868-47.078-41.354a46.276 46.276 0 0 0-1.051-0.011v-16.8c0.349 0 0.699 0.003 1.051 0.01 25.844 0.487 47.092 19.225 47.078 41.355" fill="#63A699" /><path d="M512.02 544.875c-12.138 0.041-22.067 8.521-22.314 18.909v-16.8c0.247-10.389 10.177-18.869 22.314-18.91 0.098 0 0.192 0 0.287 0.002 12.096 0.131 21.929 8.583 22.047 19.045 0.002 0.083 0.002 0.164 0.002 0.246v16.8c0-0.082 0-0.163-0.002-0.246-0.118-10.463-9.951-18.915-22.047-19.045l-0.287-0.001z m4.32-14.941v13.8-13.8m-0.05-0.028l-0.203-0.029-0.207-0.033-0.216-0.033-0.222-0.027-0.227-0.028-0.229-0.029-0.232-0.024-0.234-0.025-0.235-0.021-0.235-0.021-0.232-0.018-0.231-0.015-0.229-0.014-0.221-0.011-0.218-0.01-0.21-0.007 0.21 0.007 0.218 0.01 0.221 0.011 0.229 0.014 0.231 0.015 0.232 0.018 0.235 0.021 0.235 0.021 0.234 0.025 0.232 0.024 0.229 0.029 0.227 0.028 0.222 0.027 0.216 0.033 0.207 0.033 0.203 0.029m-3.532 13.285h-0.049l-0.004-0.001h-0.003 0.003l0.004 0.001H512.758V543.214 543.191l0.207 0.007 0.215 0.01 0.222 0.01 0.226 0.015 0.227 0.017 0.231 0.016 0.23 0.021 0.23 0.022 0.23 0.023 0.229 0.027 0.227 0.026 0.223 0.029 0.218 0.029 0.212 0.031 0.205 0.03 0.199 0.031-0.199-0.031-0.205-0.03-0.212-0.031-0.218-0.029-0.223-0.029-0.227-0.026-0.229-0.027-0.23-0.023-0.23-0.022-0.23-0.021-0.231-0.016-0.227-0.017-0.226-0.015-0.222-0.01-0.215-0.01-0.207-0.007v-13.435 13.435m-0.513-13.919h-0.002v-0.003h-0.004 0.004v0.003h0.002m0 3.789h-0.006 0.006" fill="#63A699" /><path d="M534.354 547.368V563.922c-0.119-10.463-9.952-18.915-22.048-19.045l-0.286-0.001a25.523 25.523 0 0 0-3.398 0.235v-16.8a25.523 25.523 0 0 1 3.684-0.234c12.096 0.132 21.929 8.583 22.048 19.045v0.246M508.622 528.31v16.801a24.879 24.879 0 0 0-5.233 1.298v-16.8a24.88 24.88 0 0 1 5.233-1.299M503.388 529.607v16.8a23.548 23.548 0 0 0-4.568 2.259v-16.8a23.662 23.662 0 0 1 4.568-2.259M498.819 531.866v16.8a21.482 21.482 0 0 0-4.808 4.17v-16.8a21.482 21.482 0 0 1 4.808-4.17" fill="#63A699" /><path d="M494.012 536.037v16.8c-2.481 2.926-4.037 6.467-4.278 10.292v-16.8c0.241-3.825 1.795-7.366 4.278-10.292M489.732 546.328v16.8c-0.021 0.336-0.031 0.677-0.033 1.021v-16.801c0.002-0.342 0.013-0.682 0.033-1.02" fill="#63A699" /><path d="M464.128 564.509v-16.8c0-0.276 0.003-0.554 0.01-0.831 0.514-22.57 21.619-40.797 47.162-41.08l0.604-0.003v16.8l-0.604 0.003c-25.542 0.283-46.647 18.512-47.162 41.08-0.007 0.277-0.01 0.553-0.01 0.831z" fill="#63A699" /><path d="M511.903 505.795v16.8l-0.604 0.003a54.013 54.013 0 0 0-6.668 0.488v-16.8a54.208 54.208 0 0 1 7.272-0.491M504.631 506.286v16.8a52.569 52.569 0 0 0-11.017 2.731v-16.801a52.598 52.598 0 0 1 11.017-2.73M493.614 509.018v16.801a50.289 50.289 0 0 0-9.711 4.805v-16.801a50.06 50.06 0 0 1 9.711-4.805" fill="#63A699" /><path d="M483.903 513.821v16.801c-3.939 2.517-7.433 5.549-10.345 8.979v-16.8c2.913-3.43 6.406-6.462 10.345-8.98" fill="#63A699" /><path d="M473.559 522.802v16.8c-5.422 6.391-8.83 14.169-9.357 22.607v-16.8c0.527-8.439 3.935-16.218 9.357-22.607M464.2 545.409v16.8a35.762 35.762 0 0 0-0.073 2.3v-16.8a35.762 35.762 0 0 1 0.073-2.3" fill="#63A699" /><path d="M534.354 547.368v-0.246 17.046c-0.031 10.383-9.871 19.041-21.975 19.29v-16.8c12.103-0.25 21.941-8.907 21.975-19.29z" fill="#63A699" /><path d="M534.354 547.122v16.8c0.002 0.084 0.002 0.164 0.002 0.246-0.002 0.334-0.013 0.666-0.031 0.997v-16.8c0.021-0.331 0.029-0.663 0.031-0.997-0.002-0.082-0.002-0.164-0.002-0.246M534.322 548.363v16.801c-0.245 3.803-1.801 7.339-4.288 10.271v-16.8c2.487-2.931 4.046-6.468 4.288-10.272" fill="#63A699" /><path d="M530.036 558.636v16.8c-1.36 1.604-3 3.025-4.854 4.212v-16.8a21.621 21.621 0 0 0 4.854-4.212" fill="#63A699" /><path d="M525.183 562.848v16.801a23.959 23.959 0 0 1-4.608 2.278v-16.8a23.962 23.962 0 0 0 4.608-2.279M520.573 565.127v16.8a24.945 24.945 0 0 1-5.258 1.303v-16.8a24.976 24.976 0 0 0 5.258-1.303" fill="#63A699" /><path d="M515.315 566.43v16.8c-0.964 0.133-1.94 0.209-2.937 0.229v-16.8a25.971 25.971 0 0 0 2.937-0.229" fill="#63A699" /><path d="M511.892 566.663v16.801c-11.974-0.067-22.063-8.753-22.19-19.07v-16.8c0.126 10.317 10.216 19.001 22.19 19.069z" fill="#63A699" /><path d="M511.892 566.663v16.801c-11.974-0.067-22.063-8.753-22.19-19.07v-16.8c0.126 10.317 10.216 19.001 22.19 19.069" fill="#63A699" /><path d="M560.032 547.156v16.8c0 0.176-0.002 0.351-0.004 0.525-0.365 22.839-21.367 40.875-47.529 41.152-0.206 0.003-0.414 0.003-0.619 0.003v-16.8c0.205 0 0.413 0 0.619-0.003 26.162-0.278 47.164-18.313 47.529-41.153 0.002-0.173 0.004-0.349 0.004-0.524z" fill="#63A699" /><path d="M560.032 547.156v16.8a34.954 34.954 0 0 1-0.074 2.275V549.43a35.001 35.001 0 0 0 0.074-2.274M559.958 549.432v16.801c-0.527 8.436-3.879 16.153-9.247 22.481v-16.801c5.367-6.327 8.72-14.045 9.247-22.481M550.709 571.913v16.801c-2.855 3.364-6.282 6.337-10.159 8.813v-16.8c3.877-2.477 7.304-5.448 10.159-8.814" fill="#63A699" /><path d="M540.551 580.728v16.801a50.274 50.274 0 0 1-9.711 4.799v-16.8a50.364 50.364 0 0 0 9.711-4.8M530.84 585.525v16.8a53.867 53.867 0 0 1-11.308 2.8v-16.8a53.928 53.928 0 0 0 11.308-2.8M519.532 588.325v16.8a56.582 56.582 0 0 1-7.033 0.51c-0.206 0.003-0.414 0.003-0.619 0.003v-16.8c0.205 0 0.413 0 0.619-0.003a56.377 56.377 0 0 0 7.033-0.51" fill="#63A699" /><path d="M464.128 564.499v-16.8 0.23c0.159 22.041 21.111 40.48 46.789 40.901 0.321 0.005 0.637 0.007 0.961 0.007v16.801c-0.323 0-0.639-0.003-0.961-0.007-25.678-0.422-46.632-18.859-46.789-40.901v-0.231z" fill="#63A699" /><path d="M511.878 588.839v16.801c-0.323 0-0.639-0.003-0.961-0.007-25.678-0.422-46.632-18.859-46.789-40.901V547.701v0.23c0.159 22.041 21.111 40.48 46.789 40.901 0.323 0.005 0.639 0.007 0.961 0.007" fill="#63A699" /><path d="M658.016 459.199c0.006 25.086 0.037 50.174 0.04 75.262 0.001 19.514-0.013 39.027-0.069 58.544-0.061 21.273-16.674 38.261-40.704 41.954-3.204 0.497-6.53 0.559-9.808 0.559-19.116 0.01-38.23 0.018-57.347 0.023-18.067 0.006-36.149 0.01-54.22 0.011h-1.042c-13.705 0-26.732-0.004-39.763-0.01-12.807-0.005-25.609-0.012-38.414-0.024-24.898-0.019-43.889-12.691-49.32-32.859-0.877-3.237-1.291-6.651-1.291-9.978-0.05-27.881-0.063-55.758-0.063-83.63 0-16.725 0.008-33.452 0.012-50.176 0-0.767 0.07-1.527 0.141-2.767h291.565c0.101 1.1 0.283 2.095 0.283 3.091z m-97.988 88.483c0.001-0.175 0.004-0.351 0.004-0.522 0.015-22.131-21.234-40.868-47.078-41.354a52.896 52.896 0 0 0-1.655-0.007c-25.542 0.283-46.647 18.51-47.164 41.08-0.007 0.352-0.01 0.702-0.008 1.053 0.159 22.041 21.111 40.48 46.791 40.901 0.321 0.005 0.637 0.007 0.958 0.007 0.207 0 0.416 0 0.623-0.002 26.164-0.28 47.164-18.314 47.529-41.156" fill="#C3E4E1" /><path d="M512.954 505.805c25.844 0.485 47.093 19.224 47.078 41.353 0 0.175-0.002 0.351-0.004 0.524-0.365 22.839-21.367 40.875-47.529 41.153-0.206 0.003-0.414 0.003-0.619 0.003-0.323 0-0.639-0.003-0.96-0.007-25.68-0.421-46.633-18.86-46.791-40.902-0.001-0.35 0-0.701 0.009-1.053 0.513-22.568 21.621-40.794 47.161-41.08l0.604-0.003c0.35 0.002 0.699 0.005 1.051 0.012z m-0.574 60.853c12.104-0.25 21.94-8.907 21.976-19.29 0-0.082 0-0.162-0.002-0.246-0.118-10.463-9.951-18.915-22.047-19.045l-0.287-0.001c-12.279 0.042-22.299 8.72-22.319 19.272v0.246c0.127 10.316 10.217 19.001 22.051 19.069 0.302 0 0.466-0.001 0.628-0.005" fill="#7AC6B8" /><path d="M658.056 538.328v16.801c0 18.227-0.019 36.449-0.069 54.676-0.061 21.273-16.673 38.262-40.704 41.954-3.204 0.497-6.53 0.56-9.808 0.56a274030.314 274030.314 0 0 1-111.567 0.034h-1.042c-13.705 0-26.732-0.005-39.762-0.01-12.808-0.006-25.61-0.013-38.415-0.024-24.898-0.02-43.889-12.692-49.32-32.86-0.877-3.237-1.291-6.651-1.291-9.976-0.049-26.745-0.063-53.489-0.063-80.231v-16.8c0 26.742 0.013 53.483 0.063 80.229 0 3.325 0.413 6.739 1.291 9.978 5.432 20.166 24.422 32.842 49.32 32.859 12.805 0.014 25.607 0.021 38.415 0.024 13.028 0.006 26.057 0.01 39.762 0.01h1.042c18.068-0.001 36.15-0.005 54.22-0.011l57.347-0.023c3.276 0 6.604-0.062 9.808-0.559 24.031-3.693 40.645-20.681 40.704-41.954 0.05-18.226 0.069-36.45 0.069-54.677z" fill="#63A699" /><path d="M658.056 538.328v16.801c0 18.227-0.019 36.449-0.069 54.676a39.343 39.343 0 0 1-0.078 2.363v-16.801c0.05-0.781 0.075-1.569 0.078-2.362 0.05-18.226 0.069-36.45 0.069-54.677M657.909 595.369v16.8c-0.533 8.705-3.866 16.608-9.347 23.071v-16.8c5.481-6.462 8.814-14.369 9.347-23.071" fill="#63A699" /><path d="M648.563 618.438v16.801c-2.815 3.322-6.2 6.262-10.063 8.729v-16.801c3.861-2.467 7.246-5.406 10.063-8.729M638.499 627.171v16.8a51.44 51.44 0 0 1-9.961 4.914v-16.8a51.526 51.526 0 0 0 9.961-4.914M628.538 632.083v16.801a58.349 58.349 0 0 1-11.257 2.875c-0.214 0.034-0.434 0.064-0.649 0.094v-16.798c0.218-0.031 0.437-0.062 0.649-0.096a58.312 58.312 0 0 0 11.257-2.876M616.632 635.055v16.798c-3.005 0.412-6.103 0.466-9.157 0.466a274030.314 274030.314 0 0 1-111.567 0.033h-1.042a102259.314 102259.314 0 0 1-78.177-0.033c-24.898-0.02-43.889-12.692-49.32-32.86-0.877-3.237-1.292-6.651-1.292-9.976-0.048-26.745-0.06-53.489-0.06-80.231v-16.8c0 26.742 0.012 53.483 0.06 80.229 0 3.325 0.415 6.739 1.292 9.978 5.432 20.166 24.422 32.842 49.32 32.859 12.805 0.014 25.607 0.021 38.415 0.024 13.028 0.006 26.057 0.01 39.762 0.01h1.042c18.068-0.001 36.15-0.005 54.22-0.011l57.347-0.023c3.054 0 6.154-0.053 9.157-0.463" fill="#63A699" /><path d="M683.699 496.884c0 31.295-0.061 62.601 0.021 93.896 0.052 17.667-5.946 33.318-20.007 46.359-13.792 12.781-30.878 19.802-51.017 20.491-6.437 0.219-12.874 0.278-19.317 0.278-3.979 0-7.96-0.021-11.939-0.043-4.215-0.029-8.428-0.055-12.64-0.055-29.812 0.007-59.623 0.026-89.435 0.026-21.113 0-42.225-0.012-63.338-0.044-36.259-0.061-65.439-19.895-73.705-50.271-1.491-5.466-1.926-11.263-1.945-16.919-0.152-44.102-0.092-88.203-0.071-132.304 0-16.133 9.879-24.698 28.427-24.698 83.774-0.008 167.55-0.008 251.334-0.008h5.946c0.202-0.785 0.504-1.388 0.495-1.98-0.162-19.014 0.473-38.052-0.747-57.014-1.833-28.476-16.591-51.767-41.971-69.721-20.742-14.683-44.468-22.143-70.409-22.144-3.887 0-7.82 0.168-11.804 0.502-36.619 3.091-65.349 18.376-85.729 45.001-12.369 16.167-17.875 34.184-18.509 53.478-0.227 6.721-5.732 11.24-12.481 11.24-1.32 0-2.691-0.172-4.081-0.539-5.453-1.431-8.931-5.543-8.858-10.893 0.393-30.125 11.803-56.699 34.686-79.43 20.482-20.348 46.229-33.164 76.588-38.977 6.521-1.239 13.226-1.762 19.847-2.626h17.924c9.495 1.526 19.202 2.435 28.454 4.688 39.283 9.576 68.229 30.405 87.211 61.604 11.009 18.096 15.604 37.538 15.455 57.921-0.112 14.743-0.021 29.489-0.021 44.23v4.418c1.714 0.097 3.005 0.227 4.305 0.234 17.177 0.185 27.207 8.827 27.315 23.729 0.087 13.189 0.016 26.38 0.016 39.571z m-25.714 96.121c0.058-19.517 0.07-39.03 0.069-58.543-0.003-25.089-0.033-50.175-0.04-75.263 0-0.996-0.182-1.991-0.28-3.091H366.169c-0.071 1.238-0.141 1.999-0.141 2.767-0.003 16.725-0.012 33.451-0.012 50.176-0.001 27.873 0.012 55.75 0.061 83.63 0 3.327 0.415 6.739 1.291 9.978 5.433 20.166 24.423 32.842 49.321 32.859 12.805 0.015 25.607 0.021 38.414 0.024 13.03 0.006 26.059 0.01 39.089 0.01h1.716c18.073-0.001 36.146-0.005 54.22-0.011l57.347-0.023c3.276 0 6.602-0.062 9.808-0.559 24.03-3.693 40.643-20.681 40.702-41.954" fill="#7AC6B8" /><path d="M340.274 539.151V522.35c0 22.751 0.022 45.504 0.1 68.254 0.021 5.655 0.453 11.452 1.946 16.916 8.266 30.379 37.446 50.213 73.705 50.271 21.112 0.033 42.224 0.044 63.337 0.044 29.812 0 59.623-0.021 89.435-0.025 4.214 0 8.426 0.025 12.641 0.054 3.98 0.022 7.961 0.044 11.938 0.044 6.444 0 12.882-0.062 19.317-0.279 20.14-0.69 37.226-7.711 51.017-20.491 14.062-13.04 20.058-28.69 20.008-46.358v16.8c0.05 17.668-5.946 33.318-20.008 46.358-13.792 12.781-30.878 19.803-51.017 20.492-6.437 0.22-12.873 0.278-19.317 0.278-3.979 0-7.959-0.021-11.938-0.044a1903.23 1903.23 0 0 0-12.641-0.053c-29.812 0.005-59.623 0.024-89.435 0.024-21.113 0-42.225-0.011-63.337-0.043-36.258-0.061-65.439-19.895-73.705-50.271-1.492-5.466-1.925-11.263-1.946-16.918-0.079-22.749-0.1-45.5-0.1-68.252z" fill="#63A699" /><path d="M683.719 590.779v16.8a73.905 73.905 0 0 1-0.131 4.655v-16.801a73.83 73.83 0 0 0 0.131-4.654M683.588 595.436v16.802c-0.793 13.205-5.212 25.205-14.148 35.732v-16.8c8.937-10.53 13.355-22.529 14.148-35.734M669.438 631.17v16.8a69.195 69.195 0 0 1-5.728 5.972 77.96 77.96 0 0 1-10.993 8.521v-16.8a77.813 77.813 0 0 0 10.993-8.521 69.188 69.188 0 0 0 5.728-5.972" fill="#63A699" /><path d="M652.719 645.659v16.801a73.693 73.693 0 0 1-14.346 7.111v-16.8a73.81 73.81 0 0 0 14.346-7.112M638.373 652.771v16.801c-5.243 1.928-10.78 3.298-16.602 4.095v-16.8c5.821-0.799 11.359-2.168 16.602-4.096M621.771 656.865v16.8a90.103 90.103 0 0 1-9.077 0.766c-6.436 0.22-12.873 0.28-19.316 0.28-3.979 0-7.96-0.022-11.938-0.045-4.217-0.029-8.429-0.054-12.641-0.054-29.812 0.006-59.624 0.025-89.435 0.025-21.113 0-42.225-0.011-63.337-0.043-36.259-0.062-65.439-19.895-73.705-50.271-1.492-5.465-1.926-11.263-1.946-16.918-0.078-22.75-0.1-45.501-0.1-68.252v-16.802c0 22.753 0.022 45.503 0.1 68.253 0.021 5.656 0.453 11.453 1.946 16.918 8.266 30.378 37.446 50.214 73.705 50.272 21.112 0.031 42.224 0.043 63.337 0.043 29.812 0 59.624-0.021 89.435-0.026 4.213 0 8.426 0.026 12.641 0.055 3.979 0.021 7.961 0.045 11.938 0.045 6.443 0 12.882-0.063 19.316-0.28 3.1-0.107 6.124-0.362 9.077-0.766" fill="#63A699" /></svg>